<?xml version="1.0" standalone="no"?><!DOCTYPE svg PUBLIC "-//W3C//DTD SVG 1.1//EN" "http://www.w3.org/Graphics/SVG/1.1/DTD/svg11.dtd"><svg t="1616903597030" class="icon" viewBox="0 0 1024 1024" version="1.1" xmlns="http://www.w3.org/2000/svg" p-id="7044" xmlns:xlink="http://www.w3.org/1999/xlink" width="200" height="200"><defs><style type="text/css"></style></defs><path d="M916.11 112.64c-28.1-29.35-65.91-45.51-106.46-45.51-2.14 0-4.28 0.05-6.51 0.14L573.3 77.26c-32.1 1.4-62.3 14.68-85.04 37.41l-377.99 378c-57.52 57.52-57.52 151.1 0 208.62L322.9 913.91c27.87 27.87 64.91 43.21 104.3 43.21 39.4 0 76.45-15.35 104.31-43.21l378-378c22.72-22.72 36-52.92 37.4-85.02l10-229.85c1.77-40.57-12.72-79.08-40.8-108.4z m-31.36 335.55a65.735 65.735 0 0 1-19.23 43.72l-378 378c-16.12 16.11-37.53 24.98-60.31 24.98-22.77 0-44.18-8.87-60.3-24.98L154.28 657.28c-33.25-33.26-33.25-87.36 0-120.61l377.99-377.99c11.7-11.69 27.23-18.53 43.73-19.25l229.76-9.99 3.89-0.08c23.41 0 45.26 9.35 61.51 26.32 16.23 16.96 24.6 39.21 23.59 62.66l-10 229.85z"  p-id="7045"></path><path d="M611.92 250.35h-0.19c-43.26 0.01-83.95 16.87-114.55 47.48-30.61 30.6-47.48 71.3-47.48 114.6s16.87 83.99 47.45 114.56c30.55 30.64 71.19 47.51 114.43 47.51h0.19c43.29 0 83.99-16.87 114.6-47.48 30.61-30.6 47.48-71.3 47.48-114.6s-16.87-83.99-47.45-114.58c-30.13-30.18-71.85-47.49-114.48-47.49z m70.43 232.66c-18.85 18.86-43.91 29.24-70.62 29.24h-0.11c-26.62 0-51.62-10.37-70.44-29.24-18.86-18.86-29.24-43.92-29.24-70.59s10.38-51.73 29.24-70.59c18.86-18.86 43.93-29.24 70.59-29.24h0.15c26.23 0 51.88 10.65 70.44 29.24 18.86 18.86 29.24 43.92 29.24 70.59s-10.38 51.73-29.25 70.59z"  p-id="7046"></path></svg>